<svg xmlns="http://www.w3.org/2000/svg" viewBox="0 0 64 64" role="img" aria-labelledby="faviconTitle faviconDesc">
  <title id="faviconTitle">SOS Monta Llantas</title>
  <desc id="faviconDesc">Icono con rueda, rayo y engranaje de taller mecanico</desc>
  <defs>
    <linearGradient id="bg" x1="10" x2="54" y1="8" y2="56" gradientUnits="userSpaceOnUse">
      <stop stop-color="#0b1726" />
      <stop offset="1" stop-color="#152c42" />
    </linearGradient>
    <linearGradient id="accent" x1="18" x2="50" y1="16" y2="50" gradientUnits="userSpaceOnUse">
      <stop stop-color="#ffb25b" />
      <stop offset="1" stop-color="#ff7e36" />
    </linearGradient>
  </defs>
  <rect width="64" height="64" rx="16" fill="url(#bg)" />
  <circle cx="25" cy="35" r="14" fill="none" stroke="#f3f7fb" stroke-width="5" />
  <circle cx="25" cy="35" r="6" fill="#f3f7fb" />
  <path
    fill="url(#accent)"
    d="M38 11 25 34h8l-4 19 14-25h-8l3-17Z"
  />
  <g transform="translate(42 42)">
    <circle r="8.5" fill="#0e1c2c" stroke="#f3f7fb" stroke-width="2.5" />
    <circle r="3.2" fill="#f3f7fb" />
    <g fill="#ff9a47">
      <rect x="-1.3" y="-13" width="2.6" height="4" rx="1" />
      <rect x="-1.3" y="9" width="2.6" height="4" rx="1" />
      <rect x="9" y="-1.3" width="4" height="2.6" rx="1" />
      <rect x="-13" y="-1.3" width="4" height="2.6" rx="1" />
      <rect x="7.2" y="-10.5" width="2.6" height="4" rx="1" transform="rotate(45)" />
      <rect x="7.2" y="-10.5" width="2.6" height="4" rx="1" transform="rotate(90)" />
      <rect x="7.2" y="-10.5" width="2.6" height="4" rx="1" transform="rotate(135)" />
      <rect x="7.2" y="-10.5" width="2.6" height="4" rx="1" transform="rotate(180)" />
    </g>
  </g>
</svg>
